<?xml version="1.0" encoding="utf-8"?>

<!DOCTYPE svg PUBLIC "-//W3C//DTD SVG 1.1//EN" "http://www.w3.org/Graphics/SVG/1.1/DTD/svg11.dtd">
<!-- Uploaded to: SVG Repo, www.svgrepo.com, Generator: SVG Repo Mixer Tools -->
<svg height="800px" width="800px" version="1.1" id="_x32_" xmlns="http://www.w3.org/2000/svg" xmlns:xlink="http://www.w3.org/1999/xlink" 
	 viewBox="0 0 512 512"  xml:space="preserve">
<style type="text/css">
	.st0{fill:#000000;}
</style>
<g>
	<path class="st0" d="M385.486,0H126.513c-41.045,0.008-74.292,33.256-74.3,74.308V437.7c0.008,41.028,33.255,74.283,74.3,74.3
		h258.972c41.045-0.017,74.292-33.271,74.3-74.3V74.308C459.778,33.256,426.531,0.008,385.486,0z M426.515,437.7
		c-0.008,11.38-4.566,21.534-12.014,29.007c-7.481,7.457-17.635,12.005-29.015,12.022H126.513
		c-11.38-0.017-21.534-4.565-29.015-12.022c-7.449-7.473-12.006-17.627-12.014-29.007V74.308
		c0.008-11.388,4.565-21.542,12.014-29.023c7.481-7.449,17.626-12.005,29.015-12.014h258.972
		c11.389,0.008,21.534,4.565,29.015,12.014c7.448,7.482,12.006,17.635,12.014,29.023V437.7z"/>
	<path class="st0" d="M256.008,114.866c-50.776,0-91.91,41.142-91.926,91.91c0.016,50.776,41.15,91.91,91.926,91.918
		c50.76-0.008,91.91-41.142,91.91-91.918C347.918,156.008,306.768,114.866,256.008,114.866z M202.194,152.97
		c7.928-7.928,17.586-14.101,28.34-17.919c-5.142,6.238-9.455,14.248-12.818,23.475h-20.559
		C198.725,156.593,200.423,154.74,202.194,152.97z M191.309,166.69h23.768c-3.046,10.844-4.874,23.052-5.215,36.009h-29.868
		C180.701,189.514,184.754,177.241,191.309,166.69z M179.994,210.853h29.908c0.333,12.964,2.104,25.164,5.174,36.017h-23.768
		C184.754,236.31,180.701,224.045,179.994,210.853z M202.194,260.589c-1.771-1.771-3.469-3.639-5.036-5.564h20.559
		c1.478,4.012,3.071,7.79,4.882,11.274c2.356,4.581,5.004,8.66,7.928,12.209C219.764,274.683,210.114,268.525,202.194,260.589z
		 M251.938,282.773c-1.283-0.065-2.542-0.162-3.818-0.276c-1.99-0.91-3.98-2.128-5.946-3.736
		c-5.978-4.89-11.526-13.151-15.758-23.735h25.522V282.773z M251.938,246.87h-28.357c-3.225-10.592-5.215-22.874-5.548-36.017
		h33.905V246.87z M251.938,202.698H218.05c0.333-13.143,2.34-25.425,5.572-36.009h28.316V202.698z M251.938,158.526h-25.473
		c1.048-2.64,2.161-5.198,3.371-7.538c3.623-7.002,7.871-12.542,12.338-16.197c1.966-1.592,3.956-2.81,5.946-3.72
		c1.275-0.113,2.534-0.211,3.818-0.284V158.526z M332.006,202.698h-29.909c-0.317-12.948-2.104-25.165-5.158-36.009h23.751
		C327.245,177.241,331.315,189.514,332.006,202.698z M309.83,152.97c1.77,1.771,3.444,3.623,5.036,5.556h-20.583
		c-1.454-3.996-3.071-7.798-4.882-11.275c-2.34-4.565-4.996-8.659-7.912-12.2C292.244,138.885,301.894,145.042,309.83,152.97z
		 M260.086,130.786c1.275,0.073,2.534,0.171,3.793,0.284c1.99,0.91,3.98,2.128,5.946,3.72c5.986,4.882,11.551,13.143,15.758,23.735
		h-25.498V130.786z M260.086,166.69h28.332c3.241,10.584,5.215,22.866,5.572,36.009h-33.905V166.69z M260.086,210.853h33.864
		c-0.349,13.16-2.339,25.425-5.548,36.017h-28.316V210.853z M269.825,278.76c-1.966,1.608-3.956,2.826-5.946,3.736
		c-1.259,0.114-2.518,0.211-3.793,0.276v-27.747h25.457c-1.056,2.648-2.161,5.214-3.363,7.538
		C278.557,269.574,274.293,275.105,269.825,278.76z M309.83,260.589c-7.944,7.936-17.594,14.094-28.365,17.919
		c5.166-6.247,9.455-14.239,12.818-23.483h20.583C313.274,256.95,311.601,258.818,309.83,260.589z M320.69,246.87h-23.768
		c3.046-10.852,4.874-23.053,5.215-36.017h29.868C331.315,224.045,327.245,236.31,320.69,246.87z"/>
	<path class="st0" d="M168.102,349.665h-26.334l-1.008,0.999V416.5l1.008,0.999h12.671l0.991-0.999v-22.647l0.601-0.593h12.07
		c14.67,0,23.638-8.984,23.638-21.753C191.74,358.543,182.87,349.665,168.102,349.665z M167.209,380.589h-11.177l-0.601-0.602
		v-17.058l0.601-0.601h11.177c6.173,0,9.877,3.696,9.877,9.179C177.086,376.998,173.382,380.589,167.209,380.589z"/>
	<path class="st0" d="M233.28,349.665h-12.574l-1.3,0.999L196.061,416.5l0.698,0.999h13.078l1.284-0.999l3.802-11.868h23.735
		l3.899,11.868l1.3,0.999h12.964l0.698-0.999l-22.939-65.836L233.28,349.665z M219.017,392.164l7.668-23.743h0.309l7.684,23.743
		H219.017z"/>
	<path class="st0" d="M293.568,376.698l-3.607-0.496c-7.765-1.105-10.56-3.598-10.56-7.49c0-4.288,3.087-7.375,9.065-7.375
		c5.588,0,10.576,1.795,15.774,5.183l1.397-0.301l6.076-9.073l-0.195-1.494c-5.686-4.394-14.069-7.083-23.052-7.083
		c-14.654,0-24.044,8.277-24.044,20.746c0,11.973,7.684,18.456,21.461,20.356l3.59,0.495c8.074,1.097,10.478,3.591,10.478,7.579
		c0,4.792-3.996,8.082-11.08,8.082c-7.181,0-13.273-3.388-17.756-6.986l-1.495,0.106l-7.587,8.676l0.098,1.698
		c5.296,5.085,15.563,9.276,26.139,9.276c17.562,0,26.643-9.073,26.643-21.347C314.915,384.975,307.523,378.59,293.568,376.698z"/>
	<path class="st0" d="M352.946,376.698l-3.59-0.496c-7.782-1.105-10.576-3.598-10.576-7.49c0-4.288,3.087-7.375,9.081-7.375
		c5.589,0,10.576,1.795,15.758,5.183l1.397-0.301l6.092-9.073l-0.211-1.494c-5.686-4.394-14.052-7.083-23.036-7.083
		c-14.67,0-24.044,8.277-24.044,20.746c0,11.973,7.684,18.456,21.444,20.356l3.59,0.495c8.091,1.097,10.479,3.591,10.479,7.579
		c0,4.792-3.997,8.082-11.079,8.082c-7.181,0-13.257-3.388-17.757-6.986L329,398.946l-7.57,8.676l0.098,1.698
		c5.28,5.085,15.564,9.276,26.14,9.276c17.545,0,26.626-9.073,26.626-21.347C374.293,384.975,366.917,378.59,352.946,376.698z"/>
</g>
</svg>